<?xml version="1.0" encoding="UTF-8"?><svg id="snowflake" xmlns="http://www.w3.org/2000/svg" viewBox="0 0 300 150"><defs><style>.cls-1{fill:#2bb5e9;fill-rule:evenodd;}</style></defs><path class="cls-1" d="M260.75,64.37h-.6v.74h.6c.28,0,.46-.13,.46-.36,0-.25-.17-.38-.46-.38Zm-1.34-.68h1.35c.74,0,1.23,.4,1.23,1.03,0,.39-.2,.68-.49,.87l.53,.77v.15h-.77l-.52-.74h-.6v.74h-.74v-2.82Zm3.78,1.47c0-1.51-1.01-2.65-2.54-2.65s-2.51,1.09-2.51,2.65,1.01,2.65,2.51,2.65,2.54-1.14,2.54-2.65Zm.63,0c0,1.77-1.19,3.25-3.17,3.25s-3.14-1.49-3.14-3.25,1.17-3.25,3.14-3.25,3.17,1.48,3.17,3.25Zm-177.6,6.31l-6.12,3.54,6.12,3.53c1.54,.89,2.07,2.86,1.18,4.41-.89,1.54-2.86,2.06-4.4,1.18l-10.95-6.32c-.73-.42-1.24-1.09-1.46-1.84-.11-.34-.16-.7-.14-1.05,0-.25,.04-.51,.11-.76,.22-.79,.73-1.49,1.49-1.93l10.95-6.32c1.54-.89,3.51-.36,4.4,1.18,.89,1.54,.37,3.51-1.18,4.4Zm-5.79,17.14l-10.95-6.32c-.59-.34-1.24-.47-1.87-.42-1.67,.12-2.98,1.51-2.98,3.21v12.64c0,1.78,1.44,3.23,3.22,3.23s3.23-1.44,3.23-3.23v-7.07l6.13,3.54c1.54,.9,3.51,.37,4.4-1.17,.89-1.54,.36-3.52-1.18-4.41Zm-12.63-12.37l-4.55,4.55c-.13,.13-.38,.24-.57,.24h-1.34c-.18,0-.44-.11-.57-.24l-4.55-4.55c-.13-.13-.24-.39-.24-.57v-1.34c0-.19,.11-.44,.24-.57l4.55-4.55c.13-.13,.39-.24,.57-.24h1.34c.19,0,.44,.11,.57,.24l4.55,4.55c.13,.13,.23,.39,.23,.57v1.34c0,.18-.11,.44-.23,.57Zm-3.64-1.26c0-.18-.11-.44-.24-.58l-1.32-1.31c-.13-.13-.39-.24-.57-.24h-.05c-.18,0-.44,.11-.57,.24l-1.32,1.31c-.13,.14-.23,.39-.23,.58v.05c0,.18,.1,.44,.23,.57l1.32,1.32c.13,.13,.38,.24,.57,.24h.05c.18,0,.44-.11,.57-.24l1.32-1.32c.13-.13,.24-.39,.24-.57v-.05Zm-20.58-13.59l10.95,6.32c.59,.34,1.24,.47,1.87,.42,1.67-.12,2.98-1.52,2.98-3.22v-12.64c0-1.78-1.45-3.22-3.22-3.22s-3.23,1.44-3.23,3.22v7.07l-6.14-3.54c-1.54-.89-3.51-.36-4.4,1.18-.89,1.55-.36,3.52,1.18,4.41Zm24.04,6.74c.63,.05,1.28-.08,1.87-.42l10.95-6.32c1.54-.89,2.07-2.86,1.18-4.41-.89-1.54-2.86-2.07-4.4-1.18l-6.13,3.54v-7.07c0-1.78-1.44-3.22-3.23-3.22s-3.22,1.44-3.22,3.22v12.64c0,1.7,1.31,3.09,2.98,3.22Zm-11.22,13.74c-.63-.05-1.28,.08-1.87,.42l-10.95,6.32c-1.54,.89-2.07,2.87-1.18,4.41,.89,1.54,2.86,2.07,4.4,1.17l6.14-3.54v7.07c0,1.78,1.44,3.23,3.23,3.23s3.22-1.44,3.22-3.23v-12.64c0-1.7-1.32-3.09-2.98-3.21Zm-2.97-5.92c.11-.34,.15-.7,.15-1.05-.01-.25-.05-.51-.12-.76-.22-.79-.73-1.49-1.5-1.93l-10.94-6.32c-1.54-.89-3.51-.36-4.4,1.18-.9,1.54-.37,3.51,1.18,4.4l6.12,3.54-6.12,3.53c-1.54,.89-2.07,2.86-1.18,4.41,.89,1.54,2.86,2.06,4.4,1.18l10.94-6.32c.74-.42,1.24-1.09,1.47-1.84Zm135.84-18.9h-.3s-.08,0-.12,0c-.04,0-.08,0-.12,0-.78,0-1.53,.09-2.24,.32-.69,.23-1.34,.61-1.83,1.19h0c-.51,.57-.85,1.26-1.06,2.03-.21,.78-.29,1.66-.3,2.66v1.93h-2.13c-.74,0-1.33,.6-1.33,1.31,0,.39,.15,.74,.39,1,.25,.25,.58,.42,.95,.44h2.11v15.76c0,.37,.15,.71,.4,.95,.25,.24,.59,.38,.97,.38,.72,0,1.31-.59,1.31-1.33v-15.76h2.29c.37-.02,.71-.18,.95-.42,.25-.25,.4-.6,.4-.98v-.05c0-.71-.6-1.29-1.34-1.29h-2.31v-1.92c.01-.85,.1-1.49,.23-1.95,.12-.47,.29-.76,.45-.94,.15-.16,.34-.3,.66-.4,.32-.1,.76-.17,1.35-.17h.07s.07,0,.1,0c.04,0,.08,0,.12,0h.3c.76,0,1.37-.61,1.37-1.37s-.61-1.37-1.37-1.37Zm47.24,10.2c.27-.27,.41-.62,.41-.97s-.15-.69-.42-.94h0s0,0,0,0c0,0,0,0,0,0h0c-.26-.26-.59-.4-.94-.4s-.69,.14-.95,.4l-10.55,10.28v-17.27c0-.74-.62-1.35-1.39-1.35-.37,0-.71,.15-.95,.4-.24,.24-.4,.58-.4,.95v25.29c0,.37,.16,.71,.4,.95,.24,.24,.58,.4,.95,.4,.77,0,1.39-.6,1.39-1.34v-4.17l3.43-3.43,7,8.45c.13,.19,.31,.33,.49,.4,.2,.08,.4,.1,.57,.1,.24,0,.58-.05,.88-.29h.02l.02-.03c.28-.28,.44-.64,.44-1.02,0-.32-.12-.64-.33-.9h0l-7.13-8.67,7.05-6.82h0Zm-19.04-1.74c.25,.24,.4,.59,.4,.97v17.15c0,.37-.16,.71-.4,.95-.24,.24-.58,.4-.95,.4s-.71-.16-.95-.4c-.24-.24-.4-.58-.4-.95v-1.67c-1.7,1.83-4.08,3.02-6.72,3.02s-4.99-1.13-6.68-2.94c-1.7-1.8-2.74-4.28-2.74-6.98s1.04-5.19,2.74-6.99c1.69-1.8,4.06-2.93,6.68-2.93s5.02,1.15,6.72,2.97v-1.63c0-.38,.15-.73,.4-.97,.25-.24,.59-.38,.95-.38s.7,.14,.94,.38Zm-2.29,9.54c0-2.03-.77-3.84-1.99-5.16-1.22-1.31-2.9-2.1-4.73-2.11-1.82,0-3.49,.8-4.72,2.11-1.22,1.31-2,3.13-2,5.16s.78,3.83,2,5.13c1.23,1.3,2.9,2.09,4.72,2.09s3.51-.78,4.74-2.08c1.22-1.31,1.98-3.11,1.98-5.14Zm-108.55-.48c-1.09-.51-2.32-.89-3.56-1.3-1.13-.38-2.29-.71-3.11-1.14-.41-.22-.73-.45-.94-.72-.21-.26-.32-.53-.32-.89,0-.5,.15-.9,.39-1.25,.37-.53,.99-.94,1.66-1.21,.67-.27,1.39-.39,1.91-.39,1.53,0,2.5,.51,3.24,1.04,.37,.27,.68,.54,.97,.76,.15,.12,.29,.22,.45,.3,.15,.08,.34,.14,.53,.14,.13,0,.25-.02,.37-.07,.12-.05,.23-.12,.33-.21,.1-.09,.18-.2,.24-.33,.05-.13,.08-.26,.08-.39,0-.24-.08-.46-.19-.67-.2-.37-.52-.73-.92-1.08-.59-.53-1.38-1.03-2.22-1.41-.85-.38-1.75-.64-2.62-.64-2,0-3.68,.45-4.89,1.29-.63,.44-1.19,.92-1.58,1.58-.4,.66-.62,1.48-.65,2.54,0,.05,0,.09,0,.14,0,1.03,.33,1.88,.85,2.55,.79,1,1.97,1.6,3.12,2.03,1.15,.42,2.3,.68,3.03,.92,1.02,.34,2.11,.71,2.9,1.2,.39,.25,.71,.52,.93,.81,.21,.3,.33,.62,.33,1.01v.03c0,.57-.17,1.02-.45,1.41-.42,.57-1.12,.99-1.86,1.26-.74,.26-1.51,.37-2,.37-1.75,0-2.92-.42-3.76-.84-.43-.21-.77-.42-1.08-.6-.15-.08-.3-.16-.45-.22-.15-.06-.31-.1-.49-.1-.11,0-.23,.02-.34,.06-.11,.05-.21,.11-.3,.19-.12,.11-.22,.24-.29,.39-.07,.15-.11,.3-.11,.46,0,.26,.1,.51,.24,.72,.22,.32,.54,.6,.95,.88,.42,.28,.91,.55,1.49,.82,1.27,.6,2.9,.91,4.14,.93h0c1.92,0,3.59-.44,4.99-1.47h0c1.37-1.03,2.22-2.57,2.22-4.3,0-.95-.22-1.76-.61-2.42-.59-1-1.54-1.66-2.63-2.18Zm88.21-17.58c-.37,0-.71,.15-.95,.4-.24,.24-.4,.58-.4,.95v25.29c0,.37,.15,.71,.4,.95,.24,.24,.58,.4,.95,.4,.77,0,1.38-.6,1.39-1.34v-25.29c0-.74-.62-1.35-1.39-1.35Zm62.09,17.42v.13c0,.37-.17,.71-.42,.93-.25,.22-.58,.34-.93,.34h-15.14c.39,3.69,3.33,6.42,6.86,6.45h.89c1.17,0,2.3-.4,3.3-1.06,1-.66,1.86-1.58,2.47-2.6,.13-.22,.31-.38,.5-.48,.2-.11,.42-.16,.63-.16,.24,0,.48,.06,.68,.19h.01l.02,.02c.38,.28,.62,.7,.62,1.17,0,.24-.06,.48-.19,.7h0c-.85,1.36-2,2.58-3.37,3.47-1.37,.89-2.96,1.46-4.67,1.46h-.91c-2.66-.02-5.06-1.14-6.79-2.94-1.73-1.79-2.79-4.24-2.79-6.94s1.07-5.24,2.81-7.04c1.74-1.8,4.16-2.91,6.84-2.91s4.85,1.02,6.56,2.68c1.7,1.66,2.81,3.98,3.01,6.58v.02Zm-2.95-1.27c-.77-3.11-3.5-5.33-6.62-5.32-3.2,0-5.89,2.17-6.73,5.32h13.35Zm-132.96-7.97c-2.11,0-4.04,.82-5.48,2.14v-.79c0-.36-.14-.7-.37-.94-.23-.24-.57-.41-.94-.41s-.73,.15-.97,.4c-.24,.25-.38,.59-.38,.95v17.5l.06,.06h0c.01,.07,.05,.13,.09,.19,.18,.32,.48,.57,.86,.68l.05,.02h.29c.19,0,.39-.04,.58-.13,.15-.07,.3-.19,.41-.35h0s.02-.03,.04-.05c0,0,.01,0,.02-.01,.07-.09,.13-.19,.17-.28,.04-.11,.06-.2,.08-.28v-10.56c.05-1.5,.67-2.86,1.66-3.85,.99-.99,2.34-1.6,3.83-1.6s2.87,.61,3.86,1.6c.99,.98,1.58,2.34,1.58,3.84v10.32c0,.38,.16,.73,.4,.97,.25,.24,.59,.38,.94,.38s.7-.14,.95-.38c.25-.24,.4-.59,.4-.97v-10.32c0-4.46-3.64-8.13-8.14-8.13Zm26.82,2.91c1.7,1.81,2.74,4.29,2.74,6.97,0,2.69-1.04,5.16-2.74,6.97-1.69,1.8-4.05,2.95-6.68,2.95s-4.97-1.14-6.67-2.95c-1.7-1.81-2.75-4.28-2.75-6.97s1.05-5.17,2.75-6.97c1.7-1.8,4.06-2.94,6.67-2.94s4.99,1.14,6.68,2.94Zm.04,6.97c0-2.01-.77-3.83-2-5.14-1.23-1.32-2.9-2.12-4.72-2.12s-3.49,.8-4.72,2.12c-1.23,1.31-2,3.13-2,5.14s.77,3.81,2,5.11c1.23,1.31,2.91,2.1,4.72,2.1s3.49-.79,4.72-2.1c1.23-1.31,2-3.11,2-5.11Zm29.12-9.77h-.01c-.15-.07-.32-.11-.49-.11-.26,0-.52,.08-.74,.22-.22,.14-.42,.35-.52,.61h0l-5.15,14.11-3.97-9.45h0c-.11-.27-.31-.47-.54-.61-.23-.14-.49-.22-.77-.22s-.52,.08-.74,.22c-.22,.14-.42,.34-.53,.61h0l-3.98,9.46-5.18-14.09h0c-.09-.27-.27-.48-.49-.63-.22-.14-.48-.22-.75-.22-.17,0-.34,.04-.51,.1h-.01c-.48,.23-.78,.71-.78,1.24,0,.17,.03,.33,.1,.49h0l6.37,17.11h0c.05,.13,.12,.26,.22,.38,.07,.09,.18,.16,.3,.22,.02,.02,.05,.05,.1,.08,.05,.03,.12,.06,.19,.07,.11,.04,.26,.09,.47,.09,.26,0,.5-.09,.71-.23,.2-.13,.38-.33,.48-.59h.02l4.03-9.64,4.03,9.59h0c.09,.26,.26,.46,.45,.6,.2,.15,.42,.24,.66,.28h.17c.16,0,.32-.03,.45-.08,.14-.05,.25-.12,.34-.19,.22-.17,.38-.39,.49-.64h0l6.33-17.04c.06-.16,.09-.33,.09-.49,0-.52-.31-1.02-.82-1.24Z"/></svg>