<?xml version="1.0" encoding="UTF-8"?><svg id="tableau" xmlns="http://www.w3.org/2000/svg" viewBox="0 0 300 150"><defs><style>.cls-1{fill:#e8762c;}.cls-2{fill:#eb9028;}.cls-3{fill:#c62036;}.cls-4,.cls-5{fill:#1e457e;}.cls-6{fill:#7098a4;}.cls-7{fill:#5a869a;}.cls-8{fill:#5c6691;}.cls-5{fill-rule:evenodd;}</style></defs><polygon class="cls-1" points="63.37 73.55 56.44 73.55 56.44 66.02 53.71 66.02 53.71 73.55 46.78 73.55 46.78 76.23 53.71 76.23 53.71 83.76 56.44 83.76 56.44 76.23 63.37 76.23 63.37 73.55"/><polygon class="cls-3" points="49.43 85.85 43.22 85.85 43.22 79.11 40.87 79.11 40.87 85.85 34.66 85.85 34.66 87.91 40.87 87.91 40.87 94.65 43.22 94.65 43.22 87.91 49.43 87.91 49.43 85.85"/><polygon class="cls-7" points="75.48 61.73 69.27 61.73 69.27 54.95 66.92 54.95 66.92 61.73 60.71 61.73 60.71 63.78 66.92 63.78 66.92 70.5 69.27 70.5 69.27 63.78 75.48 63.78 75.48 61.73"/><polygon class="cls-8" points="60.33 93.34 56.12 93.34 56.12 88.63 54.11 88.63 54.11 93.34 49.9 93.34 49.9 95.15 54.11 95.15 54.11 99.86 56.12 99.86 56.12 95.15 60.33 95.15 60.33 93.34"/><polygon class="cls-2" points="49.43 61.73 43.15 61.73 43.15 54.95 40.95 54.95 40.95 61.73 34.66 61.73 34.66 63.72 40.95 63.72 40.95 70.5 43.15 70.5 43.15 63.72 49.43 63.72 49.43 61.73"/><polygon class="cls-8" points="80.25 73.99 76.04 73.99 76.04 69.28 74.03 69.28 74.03 73.99 69.82 73.99 69.82 75.8 74.03 75.8 74.03 80.51 76.04 80.51 76.04 75.8 80.25 75.8 80.25 73.99"/><polygon class="cls-5" points="75.48 85.85 69.27 85.85 69.27 79.11 66.92 79.11 66.92 85.85 60.71 85.85 60.71 87.91 66.92 87.91 66.92 94.65 69.27 94.65 69.27 87.91 75.48 87.91 75.48 85.85"/><polygon class="cls-6" points="60.03 54.76 55.86 54.76 55.86 50.14 54.36 50.14 54.36 54.76 50.2 54.76 50.2 56.15 54.36 56.15 54.36 60.77 55.86 60.77 55.86 56.15 60.03 56.15 60.03 54.76"/><polygon class="cls-6" points="39.68 74.17 35.5 74.17 35.5 69.64 34.03 69.64 34.03 74.17 29.85 74.17 29.85 75.62 34.03 75.6 34.03 80.15 35.5 80.15 35.5 75.59 39.68 75.56 39.68 74.17"/><path class="cls-5" d="M156.98,71.15c1.51-.6,2.86-.77,3.72-.77,4.3,0,7.2,3.02,7.2,7.75s-3.05,7.78-8.43,7.78c-1.87,0-3.69-.36-5.62-1.01l-.09-21.72h3.22v7.97Zm2.81,11.81c3,0,4.73-1.72,4.73-4.79s-1.73-4.83-4.43-4.83c-1.18,0-2.29,.41-3.11,.78v8.29c.99,.36,1.92,.54,2.81,.54Z"/><rect class="cls-4" x="180.23" y="60.13" width="3.18" height="28.5"/><path class="cls-5" d="M199.95,76.44h7.31c-.08-1.95-1.13-2.95-2.99-3.07-1.87-.12-3.69,1.08-4.32,3.07Zm3.61,9.53c-4.9-.48-7.29-3.92-7.16-8.01,.15-4.41,3.01-7.54,7.36-7.54,4.57,0,7.22,3.38,6.99,8.37h-11c.26,2.76,1.92,4.07,4.19,4.24,1.89,.15,4.55-.28,6-1.19v3.04c-1.9,.92-3.88,1.33-6.38,1.09Z"/><path class="cls-5" d="M256.39,83.46c2.02,0,3.38-1.03,3.38-3.33v-9.43h3.22v9.83c0,3.28-2.55,5.29-6.6,5.29s-6.6-2-6.6-5.29v-9.83h3.22v9.43c0,2.31,1.37,3.33,3.38,3.33Z"/><path class="cls-5" d="M132.58,85.91c-5.38,.02-8.43-2.87-8.43-7.78s2.9-7.75,7.2-7.75c1.45,0,2.65,.32,3.72,1.02v-1.09h3.22l-.09,14.59c-1.35,.59-3.58,1-5.62,1.01Zm-.32-2.96c.73-.01,1.62-.07,2.75-.35l.06-8.23c-1.03-.71-2.02-1.04-3.11-1.04-2.7,0-4.43,1.81-4.43,4.83s1.72,4.83,4.73,4.79Z"/><path class="cls-5" d="M231.6,85.91c-5.38,.02-8.43-2.87-8.43-7.78s2.9-7.75,7.2-7.75c1.45,0,2.65,.32,3.72,1.02v-1.09h3.22l-.09,14.59c-1.35,.59-3.58,1-5.62,1.01Zm-.32-2.96c.64,0,1.62-.07,2.75-.35l.06-8.23c-1.03-.71-2.03-1.04-3.11-1.04-2.7,0-4.44,1.81-4.44,4.83s1.72,4.8,4.73,4.79Z"/><polygon class="cls-4" points="100.74 64.21 103.92 64.21 103.92 73.25 112.53 73.25 112.53 76.22 103.92 76.22 103.92 86.02 100.74 86.02 100.74 76.22 92.13 76.22 92.13 73.25 100.74 73.25 100.74 64.21"/><path class="cls-4" d="M268.28,70.57c1.04,0,1.87,.85,1.87,1.91s-.83,1.92-1.88,1.92-1.89-.84-1.89-1.92,.85-1.91,1.89-1.91h0Zm0,.3c-.84,0-1.53,.72-1.53,1.61s.69,1.62,1.54,1.62c.85,0,1.53-.71,1.53-1.61s-.68-1.62-1.53-1.62h0Zm-.36,2.72h-.34v-2.13c.18-.03,.35-.05,.6-.05,.32,0,.53,.07,.66,.16,.13,.09,.19,.24,.19,.44,0,.28-.19,.45-.42,.52v.02c.19,.03,.31,.2,.36,.52,.05,.33,.1,.46,.14,.53h-.35c-.05-.07-.1-.26-.14-.54-.05-.27-.19-.37-.46-.37h-.24v.92Zm0-1.18h.25c.28,0,.52-.1,.52-.37,0-.19-.14-.37-.52-.37-.11,0-.19,0-.25,.02v.72Z"/></svg>