<?xml version="1.0" encoding="UTF-8"?><svg id="salesforce" xmlns="http://www.w3.org/2000/svg" viewBox="0 0 300 150"><defs><style>.cls-1,.cls-2{fill:#fff;}.cls-3{fill:#009cdb;}.cls-2{fill-rule:evenodd;}</style></defs><path class="cls-3" d="M138.55,37.65c4.4-4.59,10.53-7.43,17.31-7.43,9.01,0,16.87,5.02,21.06,12.48,3.64-1.63,7.67-2.53,11.9-2.53,16.25,0,29.43,13.29,29.43,29.68s-13.17,29.68-29.43,29.68c-1.98,0-3.92-.2-5.8-.58-3.69,6.57-10.71,11.02-18.77,11.02-3.38,0-6.57-.78-9.41-2.17-3.74,8.79-12.44,14.95-22.59,14.95s-19.58-6.69-23.03-16.06c-1.51,.32-3.08,.49-4.68,.49-12.58,0-22.78-10.31-22.78-23.02,0-8.52,4.58-15.96,11.39-19.94-1.4-3.23-2.18-6.79-2.18-10.53,0-14.62,11.87-26.48,26.51-26.48,8.6,0,16.24,4.09,21.08,10.42Z"/><g><path class="cls-1" d="M101.52,76.77c-.09,.22,.03,.27,.06,.31,.26,.19,.52,.32,.78,.47,1.39,.74,2.71,.95,4.08,.95,2.8,0,4.54-1.49,4.54-3.89v-.05c0-2.22-1.96-3.02-3.8-3.6l-.24-.08c-1.39-.45-2.59-.84-2.59-1.75v-.05c0-.78,.7-1.36,1.79-1.36,1.21,0,2.64,.4,3.56,.91,0,0,.27,.18,.37-.09,.05-.14,.52-1.4,.57-1.53,.05-.15-.04-.26-.14-.31-1.05-.64-2.51-1.08-4.01-1.08h-.28c-2.56,0-4.35,1.55-4.35,3.77v.05c0,2.34,1.97,3.1,3.82,3.63l.3,.09c1.35,.41,2.51,.77,2.51,1.72v.05c0,.87-.76,1.51-1.97,1.51-.47,0-1.98,0-3.61-1.04-.2-.11-.31-.2-.46-.29-.08-.05-.28-.14-.37,.13l-.55,1.53Z"/><path class="cls-1" d="M142.51,76.77c-.09,.22,.03,.27,.06,.31,.26,.19,.52,.32,.78,.47,1.39,.74,2.71,.95,4.08,.95,2.8,0,4.54-1.49,4.54-3.89v-.05c0-2.22-1.96-3.02-3.8-3.6l-.24-.08c-1.39-.45-2.59-.84-2.59-1.75v-.05c0-.78,.7-1.36,1.79-1.36,1.21,0,2.63,.4,3.56,.91,0,0,.27,.18,.37-.09,.05-.14,.52-1.4,.57-1.53,.05-.15-.04-.26-.14-.31-1.05-.64-2.51-1.08-4.01-1.08h-.28c-2.56,0-4.35,1.55-4.35,3.77v.05c0,2.34,1.97,3.1,3.82,3.63l.3,.09c1.35,.41,2.51,.77,2.51,1.72v.05c0,.87-.76,1.51-1.97,1.51-.47,0-1.98,0-3.61-1.04-.2-.11-.31-.19-.46-.29-.05-.03-.29-.12-.37,.13l-.55,1.53Z"/><path class="cls-1" d="M172.83,69.57c-.23-.78-.59-1.46-1.06-2.03-.48-.57-1.08-1.03-1.8-1.36-.71-.33-1.56-.5-2.51-.5s-1.79,.17-2.51,.5c-.71,.33-1.32,.79-1.79,1.37-.48,.57-.83,1.25-1.06,2.03-.23,.77-.34,1.62-.34,2.51s.12,1.74,.34,2.51c.23,.78,.59,1.46,1.06,2.03,.48,.57,1.08,1.03,1.8,1.35,.72,.33,1.56,.49,2.51,.49s1.79-.17,2.5-.49c.71-.32,1.32-.78,1.8-1.35,.48-.57,.83-1.25,1.06-2.03,.23-.77,.34-1.62,.34-2.51s-.12-1.74-.34-2.51m-2.34,2.51c0,1.35-.25,2.42-.75,3.18-.49,.75-1.24,1.11-2.28,1.11s-1.78-.36-2.26-1.11c-.49-.75-.74-1.82-.74-3.18s.25-2.42,.74-3.16c.49-.74,1.23-1.1,2.27-1.1s1.78,.36,2.28,1.1c.5,.75,.75,1.81,.75,3.16"/><path class="cls-2" d="M192.02,76c-.08-.23-.3-.14-.3-.14-.34,.13-.7,.25-1.09,.31-.39,.06-.82,.09-1.28,.09-1.13,0-2.03-.34-2.67-1-.64-.67-1.01-1.74-1-3.2,0-1.32,.32-2.32,.9-3.08,.57-.75,1.44-1.14,2.59-1.14,.96,0,1.7,.11,2.47,.35,0,0,.18,.08,.27-.16,.2-.57,.36-.97,.57-1.6,.06-.18-.09-.25-.15-.28-.3-.12-1.02-.31-1.56-.39-.51-.08-1.1-.12-1.75-.12-.98,0-1.86,.17-2.6,.5-.75,.33-1.38,.79-1.88,1.36-.5,.57-.88,1.26-1.14,2.03-.25,.77-.38,1.62-.38,2.52,0,1.94,.52,3.5,1.55,4.65,1.03,1.15,2.59,1.74,4.61,1.74,1.2,0,2.43-.24,3.31-.59,0,0,.17-.08,.09-.28l-.57-1.59Z"/><path class="cls-2" d="M203.98,69.13c-.2-.75-.69-1.51-1.01-1.85-.51-.55-1.01-.93-1.5-1.14-.64-.28-1.42-.46-2.27-.46-.99,0-1.88,.17-2.61,.51-.73,.34-1.34,.81-1.82,1.39-.48,.58-.84,1.27-1.07,2.05-.23,.78-.35,1.63-.35,2.52s.12,1.76,.36,2.53c.24,.77,.63,1.45,1.15,2.01,.52,.57,1.19,1.01,1.99,1.32,.8,.31,1.76,.47,2.87,.46,2.29,0,3.49-.52,3.98-.79,.09-.05,.17-.13,.07-.38l-.52-1.45c-.08-.22-.3-.14-.3-.14-.57,.21-1.37,.59-3.25,.59-1.23,0-2.14-.36-2.71-.93-.58-.58-.87-1.43-.92-2.63h7.91s.21,0,.23-.2c0-.08,.27-1.62-.24-3.41Zm-7.87,1.65c.11-.75,.32-1.38,.64-1.87,.48-.74,1.22-1.15,2.26-1.15s1.72,.41,2.22,1.15c.33,.49,.47,1.14,.52,1.87h-5.64Z"/><path class="cls-2" d="M140.62,69.13c-.2-.75-.69-1.51-1.01-1.85-.51-.55-1.01-.93-1.5-1.14-.65-.28-1.42-.46-2.27-.46-.99,0-1.88,.17-2.61,.51-.73,.34-1.34,.81-1.82,1.39-.48,.58-.84,1.27-1.07,2.05-.23,.78-.35,1.63-.35,2.52s.12,1.76,.36,2.53c.24,.77,.63,1.45,1.15,2.01,.52,.57,1.19,1.01,1.99,1.32,.8,.31,1.76,.47,2.87,.46,2.29,0,3.49-.52,3.98-.79,.09-.05,.17-.13,.07-.38l-.52-1.45c-.08-.22-.3-.14-.3-.14-.57,.21-1.37,.59-3.25,.59-1.23,0-2.14-.36-2.71-.93-.58-.58-.87-1.43-.92-2.63h7.91s.21,0,.23-.2c0-.08,.27-1.62-.24-3.41Zm-7.87,1.65c.11-.75,.32-1.38,.64-1.87,.49-.74,1.22-1.15,2.26-1.15s1.72,.41,2.22,1.15c.33,.49,.47,1.14,.52,1.87h-5.64Z"/><path class="cls-1" d="M118.8,70.4c-.32-.02-.74-.04-1.24-.04-.68,0-1.33,.08-1.95,.25-.62,.17-1.17,.42-1.65,.77-.48,.34-.87,.78-1.15,1.3-.28,.52-.42,1.14-.42,1.82s.12,1.31,.36,1.81c.24,.5,.59,.92,1.03,1.24,.44,.32,.98,.55,1.61,.7,.62,.14,1.33,.21,2.09,.21,.81,0,1.62-.07,2.4-.2,.78-.13,1.73-.33,1.99-.39,.26-.06,.55-.14,.55-.14,.2-.05,.18-.26,.18-.26v-7.24c0-1.59-.43-2.76-1.26-3.49-.83-.73-2.05-1.09-3.63-1.09-.59,0-1.55,.08-2.12,.19,0,0-1.73,.34-2.44,.89,0,0-.16,.1-.07,.31l.56,1.5c.07,.19,.26,.13,.26,.13,0,0,.06-.02,.13-.07,1.52-.83,3.45-.8,3.45-.8,.85,0,1.51,.17,1.96,.51,.43,.33,.65,.83,.65,1.89v.33c-.68-.1-1.3-.15-1.3-.15Zm-3.15,5.56c-.31-.25-.35-.31-.46-.47-.16-.24-.24-.59-.24-1.03,0-.69,.23-1.2,.71-1.53,0,0,.68-.59,2.29-.57,1.13,.01,2.15,.18,2.15,.18v3.6h0s-1.01,.22-2.14,.28c-1.61,.1-2.32-.46-2.32-.46Z"/><path class="cls-2" d="M182.61,66.33c.06-.18-.07-.27-.12-.29-.14-.05-.81-.19-1.33-.23-.99-.06-1.55,.11-2.04,.33-.49,.22-1.03,.58-1.34,.99v-.96c0-.13-.1-.24-.23-.24h-2.03c-.13,0-.23,.11-.23,.24v11.8c0,.13,.11,.24,.24,.24h2.08c.13,0,.24-.11,.24-.24v-5.9c0-.79,.09-1.58,.26-2.08,.17-.49,.4-.88,.69-1.16,.29-.28,.62-.48,.98-.59,.37-.11,.77-.15,1.06-.15,.41,0,.87,.11,.87,.11,.15,.02,.24-.08,.29-.21,.14-.36,.52-1.45,.59-1.66Z"/><path class="cls-2" d="M163.1,60.86c-.25-.08-.48-.13-.78-.19-.3-.05-.67-.08-1.07-.08-1.43,0-2.56,.4-3.35,1.2-.79,.79-1.32,2-1.59,3.59l-.1,.54h-1.8s-.22,0-.27,.23l-.29,1.65c-.02,.16,.05,.26,.26,.25h1.75l-1.77,9.9c-.14,.8-.3,1.45-.47,1.95-.17,.49-.34,.86-.55,1.12-.2,.26-.39,.45-.72,.56-.27,.09-.59,.13-.93,.13-.19,0-.45-.03-.63-.07-.19-.04-.29-.08-.43-.14,0,0-.21-.08-.29,.13-.07,.17-.53,1.45-.59,1.61-.06,.16,.02,.28,.12,.32,.23,.08,.41,.14,.72,.21,.44,.1,.81,.11,1.16,.11,.73,0,1.39-.1,1.94-.3,.55-.2,1.04-.55,1.46-1.02,.46-.51,.75-1.04,1.03-1.77,.27-.72,.51-1.62,.7-2.66l1.78-10.09h2.61s.22,0,.26-.23l.29-1.65c.02-.16-.05-.26-.26-.25h-2.53c.01-.06,.13-.95,.42-1.78,.12-.36,.36-.65,.55-.84,.19-.19,.42-.33,.66-.41,.25-.08,.54-.12,.85-.12,.24,0,.47,.03,.65,.07,.25,.05,.34,.08,.4,.1,.26,.08,.29,0,.34-.12l.6-1.66c.06-.18-.09-.25-.15-.28Z"/><path class="cls-2" d="M127.76,77.97c0,.13-.09,.24-.23,.24h-2.1c-.13,0-.23-.11-.23-.24v-16.88c0-.13,.09-.24,.23-.24h2.1c.13,0,.23,.11,.23,.24v16.88Z"/></g></svg>