<?xml version="1.0" encoding="UTF-8"?><svg id="microsoft" xmlns="http://www.w3.org/2000/svg" viewBox="0 0 300 150"><defs><style>.cls-1{fill:#ee5225;}.cls-2{fill:#fbb615;}.cls-3{fill:#80ba42;}.cls-4{fill:#737374;}.cls-5{fill:#319ed8;}</style></defs><path class="cls-4" d="M116.78,78.69l-1.35,3.8h-.08c-.24-.89-.65-2.15-1.28-3.76l-7.25-18.24h-7.09v29h4.67v-17.83c0-1.1-.02-2.43-.07-3.95-.02-.77-.11-1.39-.13-1.86h.1c.24,1.09,.48,1.92,.66,2.48l8.69,21.16h3.27l8.63-21.35c.2-.49,.4-1.44,.59-2.29h.1c-.11,2.11-.21,4.04-.22,5.21v18.43h4.99v-29h-6.81l-7.43,18.2"/><polyline class="cls-4" points="135.71 89.49 140.58 89.49 140.58 73.8 140.58 68.71 135.71 68.71 135.71 78.92 135.71 89.49"/><path class="cls-4" d="M138.2,59.87c-.8,0-1.5,.28-2.08,.82-.58,.54-.87,1.23-.87,2.04s.29,1.47,.86,2c.57,.53,1.27,.8,2.09,.8s1.52-.27,2.1-.79c.58-.53,.87-1.2,.87-2s-.29-1.46-.85-2.02c-.56-.56-1.27-.84-2.12-.84"/><path class="cls-4" d="M157.84,68.5c-.94-.19-1.85-.29-2.72-.29-2.24,0-4.23,.48-5.93,1.43-1.7,.95-3.02,2.31-3.91,4.03-.89,1.72-1.34,3.73-1.34,5.97,0,1.96,.44,3.77,1.3,5.35,.87,1.59,2.09,2.84,3.65,3.7,1.55,.86,3.34,1.3,5.33,1.3,2.32,0,4.29-.46,5.88-1.38l.06-.04v-4.48l-.2,.15c-.72,.52-1.52,.94-2.38,1.24-.86,.3-1.65,.45-2.34,.45-1.91,0-3.45-.6-4.56-1.78-1.12-1.18-1.68-2.85-1.68-4.94s.59-3.81,1.75-5.07c1.16-1.26,2.7-1.89,4.57-1.89,1.6,0,3.16,.54,4.64,1.62l.2,.15v-4.72l-.07-.04c-.56-.31-1.31-.57-2.26-.77"/><path class="cls-4" d="M173.89,68.34c-1.22,0-2.32,.39-3.26,1.17-.82,.68-1.42,1.62-1.88,2.79h-.05v-3.6h-4.87v20.78h4.87v-10.63c0-1.81,.41-3.29,1.21-4.41,.8-1.11,1.86-1.67,3.15-1.67,.44,0,.93,.07,1.47,.22,.53,.14,.91,.3,1.14,.46l.21,.15v-4.93l-.08-.03c-.45-.19-1.1-.29-1.91-.29"/><path class="cls-4" d="M191.01,84.21c-.92,1.15-2.29,1.74-4.1,1.74s-3.2-.6-4.2-1.77c-1-1.18-1.51-2.86-1.51-5s.51-3.93,1.51-5.13c1-1.19,2.39-1.8,4.16-1.8s3.07,.58,4.05,1.72c.98,1.15,1.48,2.86,1.48,5.09s-.47,3.99-1.39,5.15m-3.87-16c-3.42,0-6.13,1-8.06,2.99-1.93,1.98-2.91,4.72-2.91,8.15s.96,5.87,2.84,7.78c1.89,1.91,4.46,2.87,7.63,2.87s5.97-1.02,7.91-3.03c1.93-2.01,2.91-4.72,2.91-8.07s-.92-5.94-2.73-7.84c-1.81-1.9-4.37-2.86-7.59-2.86"/><path class="cls-4" d="M208.26,77.29c-1.54-.62-2.52-1.13-2.93-1.53-.39-.38-.59-.92-.59-1.6,0-.6,.25-1.09,.75-1.48,.51-.39,1.21-.59,2.1-.59,.82,0,1.66,.13,2.5,.39,.83,.26,1.57,.6,2.18,1.02l.2,.14v-4.52l-.08-.03c-.56-.24-1.31-.45-2.22-.62-.9-.17-1.72-.25-2.43-.25-2.32,0-4.25,.6-5.72,1.77-1.48,1.18-2.23,2.73-2.23,4.61,0,.98,.16,1.84,.48,2.58,.32,.74,.82,1.39,1.48,1.93,.65,.54,1.66,1.11,3,1.68,1.12,.46,1.96,.86,2.49,1.17,.52,.3,.89,.61,1.1,.9,.2,.29,.31,.69,.31,1.18,0,1.4-1.04,2.08-3.19,2.08-.8,0-1.7-.17-2.7-.5-.99-.33-1.92-.8-2.76-1.4l-.2-.15v4.77l.07,.03c.7,.32,1.58,.6,2.62,.81,1.04,.22,1.98,.32,2.79,.32,2.52,0,4.55-.6,6.03-1.78,1.49-1.19,2.25-2.78,2.25-4.72,0-1.4-.41-2.6-1.21-3.57-.8-.96-2.18-1.84-4.11-2.62"/><path class="cls-4" d="M230.55,84.21c-.92,1.15-2.29,1.74-4.1,1.74s-3.2-.6-4.2-1.77c-1-1.18-1.51-2.86-1.51-5s.51-3.93,1.51-5.13c1-1.19,2.39-1.8,4.16-1.8s3.07,.58,4.05,1.72c.98,1.15,1.48,2.86,1.48,5.09s-.47,3.99-1.39,5.15m-3.88-16c-3.42,0-6.13,1-8.06,2.99-1.93,1.98-2.91,4.72-2.91,8.15s.96,5.87,2.85,7.78c1.89,1.91,4.46,2.87,7.63,2.87s5.97-1.02,7.9-3.03c1.93-2.01,2.91-4.72,2.91-8.07s-.92-5.94-2.73-7.84c-1.81-1.9-4.37-2.86-7.59-2.86"/><path class="cls-4" d="M262.98,72.69v-3.99h-4.94v-6.2l-.17,.05-4.64,1.42-.09,.03v4.7h-7.31v-2.62c0-1.22,.27-2.15,.81-2.77,.53-.62,1.29-.93,2.26-.93,.7,0,1.42,.16,2.14,.49l.18,.08v-4.2l-.08-.03c-.68-.24-1.6-.37-2.74-.37-1.44,0-2.75,.32-3.89,.94-1.14,.62-2.04,1.51-2.67,2.65-.63,1.13-.95,2.44-.95,3.88v2.88h-3.44v3.99h3.44v16.8h4.93v-16.8h7.31v10.67c0,4.4,2.07,6.62,6.15,6.62,.67,0,1.37-.08,2.09-.23,.73-.16,1.23-.32,1.53-.49l.07-.04v-4.03l-.2,.13c-.27,.18-.6,.33-.99,.43-.39,.11-.72,.17-.97,.17-.96,0-1.66-.26-2.1-.77-.44-.51-.67-1.41-.67-2.67v-9.81h4.94"/><polyline class="cls-1" points="59.94 73.8 37.02 73.8 37.02 50.8 59.94 50.8 59.94 73.8"/><polyline class="cls-3" points="85.26 73.8 62.33 73.8 62.33 50.8 85.26 50.8 85.26 73.8"/><polyline class="cls-5" points="59.94 99.2 37.02 99.2 37.02 76.2 59.94 76.2 59.94 99.2"/><polyline class="cls-2" points="85.26 99.2 62.33 99.2 62.33 76.2 85.26 76.2 85.26 99.2"/></svg>