<?xml version="1.0" encoding="UTF-8"?><svg id="google-cloud" xmlns="http://www.w3.org/2000/svg" viewBox="0 0 300 150"><defs><style>.cls-1{fill:#fbbc05;}.cls-2{fill:#ea4335;}.cls-3{fill:#4285f4;}.cls-4{fill:#34a853;}.cls-5{fill:#606469;}</style></defs><g><path class="cls-5" d="M184.8,86.78c-4.01,.06-7.87-1.5-10.69-4.34-2.83-2.84-4.37-6.71-4.28-10.72-.1-4,1.45-7.87,4.28-10.72,2.82-2.84,6.68-4.41,10.69-4.34,4.06-.13,7.96,1.61,10.59,4.72l-2.58,2.49c-1.93-2.42-4.9-3.79-8-3.66-2.98-.06-5.84,1.08-7.95,3.18-2.19,2.2-3.36,5.22-3.23,8.32-.13,3.1,1.04,6.12,3.23,8.32,2.11,2.1,4.97,3.25,7.95,3.18,3.46,.04,6.75-1.5,8.93-4.18l2.57,2.57c-1.34,1.61-3.03,2.9-4.94,3.77-2.06,.95-4.3,1.43-6.57,1.4h0Z"/><polygon class="cls-5" points="199.53 86.14 203.23 86.14 203.23 57.29 199.53 57.29 199.53 86.14 199.53 86.14"/><path class="cls-5" d="M209.26,68.78c4.04-4.01,10.55-4.01,14.58,0,1.92,2.02,2.94,4.72,2.85,7.5,.09,2.78-.94,5.48-2.85,7.5-4.03,4.01-10.54,4.01-14.58,0-1.91-2.02-2.94-4.72-2.86-7.5-.08-2.78,.95-5.48,2.86-7.5h0Zm2.75,12.68c2.46,2.6,6.6,2.6,9.05,0,1.31-1.4,2-3.26,1.92-5.18,.08-1.92-.6-3.78-1.92-5.18-2.46-2.6-6.59-2.6-9.05,0-1.3,1.4-1.99,3.26-1.91,5.18-.08,1.91,.61,3.77,1.92,5.16l-.02,.02h0Z"/><path class="cls-5" d="M247.19,86.14h-3.57v-2.73h-.11c-.63,1.04-1.54,1.89-2.61,2.47-1.11,.64-2.38,.99-3.66,.99-2.11,.14-4.18-.69-5.61-2.25-1.35-1.71-2.03-3.86-1.91-6.04v-12.15h3.69v11.47c0,3.67,1.63,5.52,4.87,5.52,1.47,.05,2.86-.62,3.76-1.79,.96-1.22,1.46-2.73,1.44-4.27v-10.93h3.7v19.72h0Z"/><path class="cls-5" d="M259.74,86.78c-2.54,0-4.95-1.1-6.6-3.02-1.85-2.04-2.85-4.72-2.77-7.48-.07-2.76,.92-5.44,2.77-7.49,1.65-1.92,4.06-3.02,6.6-3.02,1.41-.02,2.8,.31,4.04,.97,1.1,.55,2.02,1.38,2.68,2.41h.16l-.16-2.73v-9.13h3.7v28.84h-3.57v-2.73h-.17c-.66,1.03-1.58,1.86-2.68,2.41-1.23,.65-2.61,.99-4,.97h0Zm.61-3.38c1.68,.03,3.3-.68,4.45-1.93,1.26-1.43,1.9-3.3,1.79-5.2,.11-1.9-.53-3.77-1.79-5.2-2.4-2.63-6.54-2.63-8.93,0-1.26,1.42-1.91,3.28-1.79,5.18-.12,1.9,.52,3.76,1.79,5.18,1.14,1.27,2.77,1.99,4.48,1.96h0Z"/></g><g><path id="path2998" class="cls-3" d="M61.89,68.72h-15.21v4.51h10.79c-.53,6.33-5.8,9.03-10.77,9.03-6.36,0-11.91-5-11.91-12.02s5.29-12.09,11.92-12.09c5.12,0,8.13,3.26,8.13,3.26l3.16-3.27s-4.06-4.52-11.45-4.52c-9.42,0-16.71,7.95-16.71,16.54s6.86,16.62,16.95,16.62c8.88,0,15.37-6.08,15.37-15.07,0-1.9-.28-2.99-.28-2.99h0Z"/><path id="path3000" class="cls-2" d="M74.35,65.46c-6.24,0-10.71,4.88-10.71,10.57s4.34,10.75,10.79,10.75c5.84,0,10.62-4.46,10.62-10.62,0-7.06-5.56-10.69-10.69-10.69h0Zm.06,4.19c3.07,0,5.98,2.48,5.98,6.48s-2.9,6.47-5.99,6.47c-3.4,0-6.08-2.72-6.08-6.5s2.65-6.45,6.1-6.45h0Z"/><path id="path3005" class="cls-1" d="M97.66,65.46c-6.24,0-10.71,4.88-10.71,10.57s4.34,10.75,10.79,10.75c5.84,0,10.62-4.46,10.62-10.62,0-7.06-5.56-10.69-10.69-10.69h0Zm.06,4.19c3.07,0,5.98,2.48,5.98,6.48s-2.9,6.47-5.99,6.47c-3.4,0-6.08-2.72-6.08-6.5s2.65-6.45,6.1-6.45h0Z"/><path id="path3007" class="cls-3" d="M120.51,65.47c-5.73,0-10.23,5.02-10.23,10.65,0,6.41,5.22,10.67,10.13,10.67,3.04,0,4.65-1.21,5.85-2.59v2.1c0,3.68-2.23,5.88-5.6,5.88s-4.89-2.42-5.46-3.79l-4.1,1.71c1.45,3.07,4.38,6.28,9.59,6.28,5.7,0,10.04-3.59,10.04-11.11v-19.15h-4.47v1.81c-1.37-1.48-3.25-2.45-5.75-2.45h0Zm.41,4.18c2.81,0,5.69,2.4,5.69,6.49s-2.88,6.46-5.75,6.46c-3.05,0-5.9-2.48-5.9-6.42s2.95-6.53,5.96-6.53h0Z"/><path id="path3011" class="cls-2" d="M150.59,65.44c-5.4,0-9.94,4.3-9.94,10.64,0,6.71,5.06,10.69,10.46,10.69,4.51,0,7.28-2.47,8.93-4.68l-3.68-2.45c-.96,1.48-2.55,2.93-5.22,2.93-3,0-4.37-1.64-5.23-3.23l14.29-5.93-.74-1.74c-1.38-3.4-4.6-6.24-8.86-6.24h0Zm.19,4.1c1.95,0,3.35,1.04,3.94,2.28l-9.54,3.99c-.41-3.09,2.51-6.27,5.6-6.27h0Z"/><path id="path3015" class="cls-4" d="M133.84,86.15h4.69v-31.41h-4.69v31.41Z"/></g></svg>