<?xml version="1.0" encoding="UTF-8"?><svg id="aws" xmlns="http://www.w3.org/2000/svg" viewBox="0 0 300 150"><defs><style>.cls-1{fill:#f79820;}.cls-2{fill:#262f3e;}</style></defs><path class="cls-2" d="M114.64,55.88c-1.4-.19-2.72-.31-4.01-.31-3.9-.01-6.96,.96-9.28,2.92-2.31,1.96-3.46,4.57-3.47,7.78,0,3.03,.93,5.45,2.78,7.27,1.85,1.82,4.38,2.74,7.56,2.75,4.46,.01,8.18-1.72,11.14-5.19,.41,.87,.79,1.59,1.17,2.24,.38,.61,.83,1.21,1.36,1.78,.38,.34,.76,.53,1.13,.53,.3,0,.64-.11,.98-.34l2.39-1.58c.49-.38,.72-.75,.72-1.13,0-.26-.07-.57-.26-.87-.53-.99-.9-1.89-1.2-2.73-.26-.83-.41-1.97-.41-3.37h-.08l.04-12.26c.01-4.16-1.04-7.27-3.11-9.32-2.11-2.05-5.4-3.08-9.9-3.09-2.08,0-4.05,.22-5.9,.7-1.86,.45-3.45,1.01-4.77,1.69-.53,.26-.87,.53-1.06,.79s-.27,.72-.27,1.32v1.85c0,.79,.26,1.17,.79,1.18,.15,0,.34-.04,.61-.11,.27-.08,.72-.23,1.33-.49,1.33-.53,2.69-.94,4.09-1.27,1.4-.34,2.76-.48,4.09-.48,2.91,0,4.95,.58,6.16,1.76,1.17,1.18,1.77,3.18,1.76,6.06v2.76c-1.52-.35-2.96-.65-4.36-.85Zm4.41,5.08v1.59c0,1.29-.16,2.38-.39,3.29-.23,.91-.69,1.7-1.29,2.42-1.02,1.13-2.24,1.96-3.6,2.41-1.36,.45-2.65,.67-3.9,.67-1.74,0-3.06-.46-3.97-1.41-.94-.91-1.39-2.24-1.39-4.01,0-1.89,.61-3.33,1.87-4.35,1.25-1.02,3.11-1.5,5.64-1.5,1.17,0,2.35,.08,3.56,.24,1.21,.16,2.38,.39,3.48,.65Z"/><path class="cls-2" d="M138.8,75.14c.3,.27,.76,.38,1.44,.38h3.25c.68,.01,1.21-.1,1.51-.36,.3-.26,.53-.76,.72-1.51l5.9-24.35,5.79,24.42c.15,.76,.41,1.25,.71,1.52,.3,.27,.79,.38,1.51,.38h3.25c.64,.01,1.14-.14,1.44-.36,.3-.23,.57-.72,.8-1.47l9.2-29.22c.15-.42,.23-.72,.27-.95,.04-.23,.08-.42,.08-.61,0-.64-.34-.95-.94-.95h-3.52c-.68-.01-1.17,.14-1.48,.36-.27,.23-.53,.72-.76,1.47l-6.62,25.33-5.9-25.37c-.15-.72-.41-1.25-.71-1.48-.3-.27-.79-.38-1.51-.38h-3.03c-.68-.01-1.21,.14-1.51,.37-.3,.23-.53,.72-.72,1.47l-5.98,25.03-6.28-25.07c-.22-.72-.45-1.25-.75-1.48-.26-.27-.76-.38-1.47-.38h-3.71c-.61-.01-.91,.33-.91,.93,0,.26,.11,.76,.34,1.51l8.81,29.27c.23,.72,.49,1.25,.79,1.48Z"/><path class="cls-2" d="M193.97,70.3c-1.29,.83-3.14,1.24-5.53,1.23-1.51,0-2.99-.16-4.5-.47-1.47-.31-2.87-.77-4.16-1.34-.38-.15-.72-.3-.94-.38s-.45-.11-.68-.12c-.57,0-.87,.38-.87,1.17v1.93c0,.34,.07,.72,.22,1.06,.15,.34,.57,.72,1.17,1.06,.98,.57,2.46,1.07,4.35,1.53,1.89,.46,3.86,.69,5.82,.7,1.93,0,3.71-.25,5.41-.78,1.63-.49,3.03-1.16,4.21-2.11,1.18-.9,2.09-2.04,2.77-3.32,.65-1.28,.99-2.76,1-4.39,0-1.97-.56-3.75-1.73-5.3-1.17-1.55-3.13-2.77-5.85-3.65l-5.37-1.72c-2-.65-3.4-1.37-4.16-2.09-.75-.72-1.13-1.63-1.13-2.69,0-1.55,.61-2.65,1.79-3.36,1.17-.72,2.88-1.05,5.04-1.04,2.69,0,5.11,.51,7.26,1.5,.64,.3,1.13,.46,1.44,.46,.57,0,.87-.41,.87-1.21v-1.78c0-.53-.11-.95-.33-1.25-.23-.34-.6-.64-1.13-.95-.38-.23-.91-.46-1.59-.69-.68-.23-1.4-.42-2.15-.61-.79-.15-1.59-.31-2.46-.42-.83-.12-1.7-.16-2.53-.16-1.66,0-3.25,.18-4.77,.63-1.51,.45-2.8,1.09-3.94,1.96-1.14,.83-2.05,1.89-2.73,3.09-.68,1.21-1.03,2.61-1.03,4.2,0,1.97,.63,3.82,1.88,5.49,1.24,1.71,3.28,3,6.04,3.88l5.48,1.72c1.85,.61,3.14,1.26,3.82,1.98,.68,.72,1.02,1.59,1.01,2.65,0,1.55-.69,2.76-1.98,3.59Z"/><path class="cls-1" d="M93.62,87.42c14.79,13.44,34.41,21.55,56.2,21.62,15.55,.05,33.65-4.78,46.13-13.94,2.05-1.51,.28-3.82-1.81-2.88-13.98,5.86-29.16,8.69-42.97,8.65-20.47-.06-40.24-5.75-56.26-15.11-1.4-.84-2.46,.6-1.29,1.66Z"/><path class="cls-1" d="M199.36,104.1c6.68-5.58,8.45-17.27,7.09-18.97-1.36-1.67-13.04-3.14-20.17,1.83-1.1,.79-.91,1.85,.3,1.7,4.05-.48,12.98-1.51,14.57,.53,1.58,2.01-1.81,10.44-3.33,14.18-.46,1.13,.52,1.59,1.55,.72Z"/></svg>